# xmcd
#
# Track frame offsets: 
#        150
#        11845
#        22965
#        34575
#        45505
#        58280
#        70012
#        80755
#        93375
#        111710
#        122750
#        132615
#        143835
#        157315
#        168507
#        177835
#
# Disc length: 2553 seconds
#
# Revision: 2
# Processed by: cddbd v1.5.2PL0 Copyright (c) Steve Scherf et al.
# Submitted via: ExactAudioCopy v1.0b3
#
DISCID=e809f710
DTITLE=Brook Benton - 16 Golden Classics
DYEAR=1987
DGENRE=Soul
TTITLE0=Kiddio
TTITLE1=It's Just a Matter of Time
TTITLE2=My True Confession
TTITLE3=Frankie and Johnny
TTITLE4=Think Twice
TTITLE5=Hotel Happiness
TTITLE6=Thank You Pretty Baby
TTITLE7=The Boll Weevil Song
TTITLE8=Rainy Night in Georgia
TTITLE9=Revenge
TTITLE10=Lie to Me
TTITLE11=So Many Ways
TTITLE12=I Got What I Wanted
TTITLE13=The Ties that Bind
TTITLE14=Shadrack
TTITLE15=For My Baby
EXTD=
EXTT0=
EXTT1=
EXTT2=
EXTT3=
EXTT4=
EXTT5=
EXTT6=
EXTT7=
EXTT8=
EXTT9=
EXTT10=
EXTT11=
EXTT12=
EXTT13=
EXTT14=
EXTT15=
PLAYORDER=
